<?xml version="1.0" encoding="UTF-8"?>
<svg width="80px" height="80px" viewBox="0 0 80 80" version="1.1" xmlns="http://www.w3.org/2000/svg" xmlns:xlink="http://www.w3.org/1999/xlink">
    <title>snowflake</title>
    <g id="Page-1" stroke="none" stroke-width="1" fill="none" fill-rule="evenodd">
        <g id="snowflake" fill="#000000" fill-rule="nonzero">
            <path d="M76.5317647,42.3351351 L57.6023529,46.9902703 L42.5341176,38.9967568 L57.6023529,31.0010811 L76.5317647,35.6605405 C76.6376471,35.6886486 76.7458824,35.6994595 76.8517647,35.6994595 C77.3929412,35.6994595 77.8870588,35.3686486 78.0305882,34.8627027 C78.2047059,34.2616216 77.8188235,33.6454054 77.1647059,33.4832432 L60.6047059,29.4075676 L76.3882353,21.0313514 C76.9717647,20.72 77.1717647,20.0324324 76.8352941,19.4940541 C76.4917647,18.9535135 75.7435294,18.7718919 75.16,19.0832432 L59.3835294,27.4572973 L63.8211765,12.2421622 C63.9929412,11.6410811 63.6070588,11.0248649 62.9552941,10.8627027 C62.3035294,10.7048649 61.6329412,11.0572973 61.4541176,11.6605405 L56.3835294,29.0486486 L41.3152941,37.0443243 L41.3152941,21.0572973 L55.1670588,8.32432432 C55.6470588,7.88540541 55.6470588,7.17189189 55.1670588,6.73081081 C54.6917647,6.29189189 53.9129412,6.29189189 53.4352941,6.73081081 L41.3152941,17.8724324 L41.3152941,1.12648649 C41.3129412,0.505945946 40.7623529,0 40.0870588,0 C39.4117647,0 38.8611765,0.505945946 38.8611765,1.12648649 L38.8611765,17.8724324 L26.7411765,6.73081081 C26.2611765,6.29189189 25.4847059,6.29189189 25.0070588,6.73081081 C24.5294118,7.17189189 24.5294118,7.88540541 25.0070588,8.32432432 L38.8611765,21.0572973 L38.8611765,37.0486486 L23.7905882,29.052973 L18.72,11.6627027 C18.5411765,11.0616216 17.8729412,10.707027 17.2188235,10.8648649 C16.5647059,11.0248649 16.1764706,11.6432432 16.3505882,12.2443243 L20.7858824,27.4594595 L5.00705882,19.0832432 C4.42352941,18.7740541 3.67294118,18.9556757 3.33411765,19.4962162 C2.99529412,20.0345946 3.19764706,20.7243243 3.78117647,21.0335135 L19.5647059,29.4097297 L3.00235294,33.4854054 C2.35294118,33.6454054 1.96235294,34.2637838 2.13882353,34.8627027 C2.28470588,35.3664865 2.77882353,35.6994595 3.32,35.6994595 C3.42588235,35.6994595 3.53176471,35.6886486 3.63764706,35.6605405 L22.5670588,31.0010811 L37.6352941,38.9967568 L22.5694118,46.9902703 L3.64,42.332973 C2.99294118,42.1794595 2.31529412,42.5297297 2.14117647,43.1286486 C1.96470588,43.7297297 2.35294118,44.3459459 3.00705882,44.5081081 L19.5694118,48.5816216 L3.78588235,56.9578378 C3.2,57.2713514 3,57.9567568 3.33882353,58.4972973 C3.56705882,58.8583784 3.97882353,59.0616216 4.40235294,59.0616216 C4.60941176,59.0616216 4.82117647,59.0162162 5.01411765,58.9124324 L20.7976471,50.5362162 L16.3576471,65.7513514 C16.1835294,66.3524324 16.5717647,66.9686486 17.2258824,67.1286486 C17.3317647,67.1567568 17.44,67.1697297 17.5458824,67.1697297 C18.0847059,67.1697297 18.5788235,66.8389189 18.7270588,66.332973 L23.7976471,48.9448649 L38.8658824,40.947027 L38.8658824,56.9383784 L25.0141176,69.6735135 C24.5341176,70.1102703 24.5341176,70.8259459 25.0141176,71.267027 C25.4917647,71.7016216 26.2682353,71.7016216 26.7458824,71.267027 L38.8658824,60.1254054 L38.8658824,76.8735135 C38.8658824,77.4918919 39.4141176,78 40.0917647,78 C40.7670588,78 41.3176471,77.4940541 41.3176471,76.8735135 L41.3176471,60.1254054 L53.4352941,71.267027 C53.6776471,71.4875676 53.9905882,71.5935135 54.3035294,71.5935135 C54.6211765,71.5935135 54.9341176,71.4810811 55.1694118,71.267027 C55.6494118,70.8259459 55.6494118,70.1102703 55.1694118,69.6735135 L41.3105882,56.9383784 L41.3105882,40.9513514 L56.3764706,48.9448649 L61.4470588,66.3372973 C61.5929412,66.8389189 62.0894118,67.1697297 62.6282353,67.1697297 C62.7341176,67.1697297 62.84,67.1610811 62.9482353,67.132973 C63.6023529,66.9708108 63.9882353,66.3545946 63.8141176,65.7513514 L59.3717647,50.5405405 L75.1552941,58.9124324 C75.3505882,59.0183784 75.56,59.0659459 75.7694118,59.0659459 C76.1929412,59.0659459 76.6023529,58.8605405 76.8329412,58.5016216 C77.1717647,57.9610811 76.9717647,57.2756757 76.3858824,56.96 L60.6023529,48.5859459 L77.1623529,44.5081081 C77.8188235,44.3502703 78.2047059,43.7297297 78.0282353,43.1308108 C77.8588235,42.5254054 77.1905882,42.172973 76.5317647,42.3351351 Z" id="Path"></path>
        </g>
    </g>
</svg>