<?xml version="1.0" encoding="UTF-8"?>
<svg width="24px" height="24px" viewBox="0 0 24 24" version="1.1" xmlns="http://www.w3.org/2000/svg" xmlns:xlink="http://www.w3.org/1999/xlink">
    <!-- Generator: Sketch 62 (91390) - https://sketch.com -->
    <title>00 atome / icon / download</title>
    <desc>Created with Sketch.</desc>
    <g id="00-atome-/-icon-/-download" stroke="none" stroke-width="1" fill="#005EB8">
        <path d="M23.4,21.4 C23.7313708,21.4 24,21.6686292 24,22 C24,22.3313708 23.7313708,22.6 23.4,22.6 L23.4,22.6 L0.6,22.6 C0.26862915,22.6 0,22.3313708 0,22 C0,21.6686292 0.26862915,21.4 0.6,21.4 L0.6,21.4 Z M11.4,1 C11.7313708,1 12,1.26862915 12,1.6 L12,1.6 L11.999,17.552 L20.5757131,8.97575874 C20.8100151,8.74143157 21.1899141,8.74141115 21.4242413,8.97571313 C21.6585684,9.21001511 21.6585889,9.5899141 21.4242869,9.82424126 L11.8248029,19.4247573 C11.590492,19.6590933 11.2105754,19.6591035 10.9762519,19.4247801 L1.37573593,9.82426407 C1.14142136,9.58994949 1.14142136,9.21005051 1.37573593,8.97573593 C1.61005051,8.74142136 1.98994949,8.74142136 2.22426407,8.97573593 L10.799,17.55 L10.8,1.6 C10.8,1.30176624 11.0175896,1.05435325 11.3026769,1.00785299 Z" id="combined-shape"></path>
    </g>
</svg>