<?xml version="1.0" encoding="UTF-8"?>
<svg width="24px" height="24px" viewBox="0 0 24 24" version="1.1" xmlns="http://www.w3.org/2000/svg" xmlns:xlink="http://www.w3.org/1999/xlink">
    <!-- Generator: Sketch 62 (91390) - https://sketch.com -->
    <title>00 atome / icon / eye picto</title>
    <desc>Created with Sketch.</desc>
    <g id="00-atome-/-icon-/-eye-picto" stroke="none" stroke-width="1" fill="#005EB8">
        <g id="Group" transform="translate(0.000000, 4.000000)">
            <path d="M12,0 C6.54545455,0 1.88727273,3.39272727 0,8.18181818 C1.88727273,12.9709091 6.54545455,16.3636364 12,16.3636364 C17.4545455,16.3636364 22.1127273,12.9709091 24,8.18181818 C22.1127273,3.39272727 17.4545455,0 12,0 Z" id="shape" ></path>
            <path d="M12,13.6363636 C8.98909091,13.6363636 6.54545455,11.1927273 6.54545455,8.18181818 C6.54545455,5.17090909 8.98909091,2.72727273 12,2.72727273 C15.0109091,2.72727273 17.4545455,5.17090909 17.4545455,8.18181818 C17.4545455,11.1927273 15.0109091,13.6363636 12,13.6363636 Z" id="path" ></path>
            <path d="M12,3.81818182 C9.58545455,3.81818182 7.63636364,5.76727273 7.63636364,8.18181818 C7.63636364,10.5963636 9.58545455,12.5454545 12,12.5454545 C14.4145455,12.5454545 16.3636364,10.5963636 16.3636364,8.18181818 C16.3636364,5.76727273 14.4145455,3.81818182 12,3.81818182 Z" id="path" fill="#FFFFFF"></path>
        </g>
    </g>
</svg>