<?xml version="1.0" encoding="UTF-8"?>
<svg width="19px" height="19px" viewBox="0 0 19 19" version="1.1" xmlns="http://www.w3.org/2000/svg" xmlns:xlink="http://www.w3.org/1999/xlink">
    <!-- Generator: Sketch 58 (84663) - https://sketch.com -->
    <title>00 atome / icon / search-blue</title>
    <desc>Created with Sketch.</desc>
    <g id="symbols" stroke="none" stroke-width="1" fill="none" fill-rule="evenodd">
        <g id="00-atome-/-icon-/-search-blue" transform="translate(-2.000000, -2.000000)" fill="#005EB8">
            <path d="M16.9445761,4.97804074 L17.1427894,5.18291316 C20.1334839,8.37834426 20.1818919,13.3276067 17.2879724,16.5798572 L20.8321962,20.1248323 C21.0274584,20.3200945 21.0274584,20.636677 20.8321962,20.8319391 C20.6369341,21.0272013 20.3203516,21.0272013 20.1250895,20.8319391 L20.1250895,20.8319391 L16.5802929,17.2874156 C13.2569826,20.2436069 8.16339392,20.1290721 4.97808947,16.9437677 C1.67397018,13.6396484 1.67397018,8.28220876 4.97808947,4.97808947 C8.28220063,1.6739783 13.6396027,1.6739783 16.9445761,4.97804074 Z M5.68519625,5.68519625 C2.77160125,8.59879124 2.77160125,13.3230659 5.68519625,16.2366609 C8.59879937,19.150264 13.3231116,19.150264 16.237518,16.2366609 C19.0863585,13.3878204 19.1496739,8.80789038 16.427464,5.88210313 L16.2375424,5.68522061 L16.0406038,5.49529528 C13.1140108,2.7730323 8.53404469,2.83634781 5.68519625,5.68519625 Z" id="Combined-Shape"></path>
        </g>
    </g>
</svg>