<?xml version="1.0" encoding="UTF-8"?>
<svg width="80px" height="80px" viewBox="0 0 80 80" version="1.1" xmlns="http://www.w3.org/2000/svg" xmlns:xlink="http://www.w3.org/1999/xlink">
    <g id="Page-1" stroke="none" stroke-width="1" fill="none" fill-rule="evenodd">
        <g fill="#000000" fill-rule="nonzero">
            <path d="M79.4944681,71.3167188 L67.9788936,39.60375 C67.7436596,38.9560938 66.9584681,38.5954688 66.252766,38.8114063 C65.5474043,39.0273438 65.1547234,39.748125 65.3897872,40.3959375 L76.9051915,72.1089063 C77.3639149,73.371875 77.1405957,74.7154688 76.2925957,75.7954688 C75.444766,76.8753125 74.1268085,77.4948438 72.6765957,77.4948438 L7.32340426,77.4948438 C5.87319149,77.4948438 4.55523404,76.8754688 3.70740426,75.795625 C2.85957447,74.7157813 2.63608511,73.371875 3.09480851,72.1090625 L19.5906383,26.6810938 C20.1982979,25.0076563 21.8977021,23.8832813 23.8194043,23.8832813 L56.1811064,23.8832813 C58.1028085,23.8832813 59.8020426,25.0076563 60.4098723,26.6810938 L63.504,35.2021875 C63.7422979,35.8585938 64.5145532,36.213125 65.2301277,35.9945313 C65.9450213,35.7757813 66.3314043,35.0664063 66.0931064,34.41 L62.9989787,25.8889063 C62.0190638,23.190625 59.2789787,21.3778125 56.1809362,21.3778125 L44.2755745,21.3778125 L44.2755745,17.6639063 C47.7114894,16.1832813 50.0977021,12.9779688 50.0977021,9.26921875 C50.0977021,4.158125 45.568,0 40,0 C34.432,0 29.9022979,4.158125 29.9022979,9.269375 C29.9022979,12.978125 32.2883404,16.1834375 35.7244255,17.6640625 L35.7244255,21.3779687 L23.8190638,21.3779687 C20.7208511,21.3779687 17.9809362,23.1907813 17.0011915,25.8889062 L0.505361702,71.3167188 C-0.23387234,73.3528125 0.12612766,75.5190625 1.49310638,77.2603125 C2.86042553,79.0014063 4.98519149,80 7.32340426,80 L72.6769362,80 C75.0149787,80 77.1399149,79.0014063 78.5070638,77.2603125 C79.8738723,75.5192187 80.2338723,73.3528125 79.4944681,71.3167188 Z M41.5465532,21.3778125 L38.453617,21.3778125 L38.453617,18.4298437 C38.9579574,18.50125 39.4742128,18.5385938 40.0001702,18.5385938 C40.5259574,18.5385938 41.042383,18.5014062 41.5467234,18.4298437 L41.5467234,21.3778125 L41.5465532,21.3778125 Z M32.6314894,9.269375 C32.6314894,5.53953125 35.9370213,2.5053125 40,2.5053125 C44.0629787,2.5053125 47.3685106,5.5396875 47.3685106,9.269375 C47.3685106,12.9990625 44.0629787,16.0334375 40,16.0334375 C35.9371915,16.0334375 32.6314894,12.9990625 32.6314894,9.269375 Z" id="Shape"></path>
            <path d="M40,4.00828125 C36.8398298,4.00828125 34.2689362,6.3684375 34.2689362,9.26921875 C34.2689362,12.17 36.84,14.5301562 40,14.5301562 C43.16,14.5301562 45.7310638,12.1701562 45.7310638,9.26921875 C45.7310638,6.36828125 43.1601702,4.00828125 40,4.00828125 Z M40,12.025 C38.3446809,12.025 36.9979574,10.78875 36.9979574,9.26921875 C36.9979574,7.7496875 38.3446809,6.51359375 40,6.51359375 C41.6553191,6.51359375 43.0020426,7.74984375 43.0020426,9.269375 C43.0020426,10.7889063 41.6553191,12.025 40,12.025 Z" id="Shape"></path>
            <path d="M40,29.3945312 C27.2090213,29.3945312 16.8027234,38.9470313 16.8027234,50.6889063 C16.8027234,62.4307813 27.2090213,71.9832813 40,71.9832813 C52.7909787,71.9832813 63.1972766,62.4307813 63.1972766,50.6889063 C63.1972766,38.9470313 52.7911489,29.3945312 40,29.3945312 Z M40,69.478125 C28.7137021,69.478125 19.5317447,61.049375 19.5317447,50.6889063 C19.5317447,40.3284375 28.7137021,31.8998437 40,31.8998437 C51.2861277,31.8998437 60.4682553,40.3285938 60.4682553,50.6889063 C60.4682553,61.0492188 51.2861277,69.478125 40,69.478125 Z" id="Shape"></path>
            <path d="M37.9625532,56.4071875 L30.4874894,50.6889063 L37.9627234,44.970625 C38.541617,44.5276563 38.6199149,43.7378125 38.1373617,43.2064063 C37.6546383,42.6748438 36.7942128,42.603125 36.2154894,43.0460937 L29.7205106,48.014375 L29.7205106,44.008125 C29.7205106,43.3164062 29.109617,42.7554688 28.3559149,42.7554688 C27.6022128,42.7554688 26.9913191,43.31625 26.9913191,44.008125 L26.9913191,57.3692188 C26.9913191,58.0609375 27.6022128,58.621875 28.3559149,58.621875 C29.109617,58.621875 29.7205106,58.0610938 29.7205106,57.3692188 L29.7205106,53.3629688 L36.2154894,58.3315625 C36.8333617,58.8040625 37.788766,58.6726563 38.2301277,58.05625 C38.6062979,57.5315625 38.4881702,56.8092187 37.9625532,56.4071875 Z" id="Path"></path>
            <path d="M51.6440851,49.4364062 L47.277617,49.4364062 C46.5239149,49.4364062 45.9130213,49.9971875 45.9130213,50.6890625 C45.9130213,51.3809375 46.5237447,51.9417187 47.277617,51.9417187 L50.2796596,51.9417187 L50.2796596,56.0335937 C50.2796596,56.0796875 50.2386383,56.1170312 50.188766,56.1170312 L44.3666383,56.1170312 C44.3165957,56.1170312 44.2757447,56.0796875 44.2757447,56.0335937 L44.2757447,45.3446875 C44.2757447,45.2985937 44.3165957,45.26125 44.3666383,45.26125 L51.6442553,45.26125 C52.3979574,45.26125 53.0088511,44.7004687 53.0088511,44.0085937 C53.0088511,43.3167187 52.3981277,42.7559375 51.6442553,42.7559375 L44.3666383,42.7559375 C42.8115745,42.7559375 41.5465532,43.9171875 41.5465532,45.3446875 L41.5465532,56.0335937 C41.5465532,57.4610937 42.8115745,58.6223437 44.3666383,58.6223437 L50.188766,58.6223437 C51.7438298,58.6223437 53.0088511,57.4610937 53.0088511,56.0335937 L53.0088511,50.6890625 C53.0086809,49.9971875 52.3979574,49.4364062 51.6440851,49.4364062 Z" id="Path"></path>
        </g>
    </g>
</svg>
